<?xml version="1.0" standalone="no"?><!DOCTYPE svg PUBLIC "-//W3C//DTD SVG 1.1//EN" "http://www.w3.org/Graphics/SVG/1.1/DTD/svg11.dtd"><svg t="1561453567139" class="icon" viewBox="0 0 1024 1024" version="1.1" xmlns="http://www.w3.org/2000/svg" p-id="2412" xmlns:xlink="http://www.w3.org/1999/xlink" width="32" height="32"><defs><style type="text/css"></style></defs><path d="M854.016 169.984l-102.016 102.016q102.016 102.016 102.016 240 0 96-52.010667 180.010667l-64-61.994667q29.994667-59.989333 29.994667-118.016 0-104.021333-75.989333-180.010667l-93.994667 93.994667 0-256 256 0zM121.984 230.016l54.016-54.016 669.994667 672-54.016 54.016-100.010667-100.010667q-48 27.989333-96 40.021333l0-88.021333q16-6.016 34.005333-16l-344.021333-344.021333q-29.994667 59.989333-29.994667 118.016 0 104.021333 75.989333 180.010667l93.994667-93.994667 0 256-256 0 102.016-102.016q-102.016-102.016-102.016-240 0-96 52.010667-180.010667zM425.984 269.994667q-11.989333 4.010667-32 16l-61.994667-64q50.005333-29.994667 93.994667-40.021333l0 88.021333z" p-id="2413" fill="#ffffff"></path></svg>
